<svg width="558" height="121" viewBox="0 0 558 121" fill="none" xmlns="http://www.w3.org/2000/svg">
<path d="M167.358 27.634H183.773V99.2633H167.358V27.634ZM166.68 16.6483H184.321V1.04378H166.68V16.6483ZM232.47 26.1466C221.352 26.1466 214.698 31.9918 210.079 38.7764V27.6601H193.664V99.2894H210.079V58.8691C210.079 47.7529 216.733 41.0988 226.232 41.0988C235.732 41.0988 241.577 47.4658 241.577 58.6082V99.3155H257.992V53.7285C257.992 37.028 248.623 26.1988 232.496 26.1988L232.47 26.1466ZM486.286 35.8538C486.051 35.5146 485.843 35.1753 485.582 34.8361C481.223 29.1736 474.464 25.9118 465.644 25.9118C454.526 25.9118 447.872 31.757 443.253 38.5415V0H426.838V99.0546H443.253V58.6342C443.253 57.1208 443.409 55.6856 443.67 54.3548L443.775 53.7807C443.931 52.9718 444.14 52.215 444.375 51.4844C445.497 48.1182 447.454 45.4565 450.038 43.656C451.317 42.7427 452.778 42.0643 454.344 41.5946C455.91 41.1249 457.632 40.89 459.433 40.89C460.137 40.89 460.816 40.9161 461.468 40.9944C462.773 41.1249 464 41.4119 465.122 41.8033C465.696 42.0121 466.218 42.2208 466.74 42.4818C467.314 42.7688 467.862 43.0819 468.358 43.4473C468.462 43.5256 468.54 43.6038 468.645 43.656C471.698 45.8741 473.681 49.3968 474.412 54.0677C474.621 55.4246 474.778 56.8337 474.778 58.3733V99.0807H491.192V53.4936C491.192 46.5264 489.522 40.603 486.443 36.0364C486.417 35.9843 486.391 35.9321 486.338 35.8799L486.286 35.8538ZM558 5.27108L515.254 23.2763V7.72396H498.839V79.2228C498.839 91.5133 504.058 97.4106 512.096 99.4199C514.34 99.994 516.819 100.255 519.455 100.255C522.274 100.255 524.753 99.9679 527.023 99.4199C529.685 98.7936 532.06 97.8281 534.252 96.6017V83.163C530.99 84.7809 527.728 85.6159 524.074 85.6159C518.516 85.6159 515.254 83.0326 515.254 76.6655V41.0205L558 23.0675V5.27108ZM48.4355 60.513H72.7315V78.2834C66.8859 82.6151 58.7437 85.4854 49.7925 85.4854C30.4027 85.4854 17.5109 71.1074 17.5109 51.5626V51.3017C17.5109 33.1139 30.8202 17.7964 48.305 17.7964C60.3878 17.7964 67.5644 21.7367 74.8976 27.9733L85.4928 15.3435C75.7327 7.0716 65.555 2.45288 48.9835 2.45288C20.3554 2.45288 0 24.9724 0 51.5626V51.8236C0 79.5098 19.5464 100.672 49.2445 100.672C66.0769 100.672 79.4906 93.8879 88.8593 85.8769V45.9784H48.4355V60.487V60.513ZM158.094 56.7033V99.1589H141.81V90.339C136.929 96.1842 129.466 100.646 118.61 100.646C105.039 100.646 93.087 92.9224 93.087 78.5182V78.2573C93.087 62.3918 105.431 54.7984 122.133 54.7984C130.823 54.7984 136.381 56.0248 141.94 57.7731V56.4162C141.94 46.5003 135.703 41.0727 124.299 41.0727C116.287 41.0727 110.311 42.8471 103.813 45.5609L99.3241 32.4093C107.205 28.8866 114.93 26.4337 126.595 26.4337C147.76 26.4337 158.068 37.5499 158.068 56.6772L158.094 56.7033ZM142.227 69.2025C138.026 67.5846 132.18 66.3582 125.812 66.3582C115.504 66.3582 109.397 70.5594 109.397 77.4744V77.7354C109.397 84.52 115.504 88.3297 123.229 88.3297C134.085 88.3297 142.227 82.2236 142.227 73.2732V69.2025ZM295.128 56.9903C286.725 54.2765 278.974 52.1106 278.974 46.9439V46.683C278.974 42.4818 282.627 39.4809 289.021 39.4809C294.997 39.4809 302.33 42.0643 309.246 46.2655L315.77 34.6013C308.176 29.5911 298.39 26.4598 289.439 26.4598C275.19 26.4598 263.942 34.7317 263.942 48.3008V48.5618C263.942 62.2614 275.738 66.6192 286.333 69.5939C294.736 72.1773 302.357 74.0822 302.357 79.6403V79.9012C302.357 84.6504 298.285 87.6252 291.239 87.6252C284.193 87.6252 275.503 84.6504 267.778 78.8053L260.445 89.9215C269.396 96.967 280.67 100.646 290.848 100.646C305.775 100.646 317.44 93.1833 317.44 78.1268V77.8659C317.44 64.9752 305.645 60.226 295.18 56.9642L295.128 56.9903ZM401.655 27.3992H418.069V84.3895C418.069 90.1042 417.339 95.0882 415.982 99.4199C414.468 104.247 412.119 108.24 408.988 111.371C402.464 117.895 392.442 121 379.551 121C367.755 121 356.742 118.025 347.53 112.441L353.637 100.098C361.231 104.848 369.373 107.692 379.159 107.692C388.084 107.692 394.53 104.848 398.21 99.3938C400.558 95.8971 401.811 91.3306 401.811 85.7203V80.1622C395.835 87.8861 388.371 93.3138 376.576 93.3138C371.226 93.3138 366.033 92.0091 361.387 89.6084C361.1 89.4518 360.813 89.3213 360.526 89.1648C359.326 88.5124 358.177 87.7818 357.081 86.9728C349.357 81.2842 344.033 71.9946 344.033 59.8085V59.5476C344.033 57.6166 344.216 55.79 344.451 54.0155C346.956 36.2452 361.413 25.9118 376.602 25.9118C388.684 25.9118 396.148 31.4699 401.707 38.124V27.3992H401.655ZM401.942 59.6258C401.942 48.6401 392.677 39.7419 381.247 39.7419C369.817 39.7419 360.552 48.6401 360.552 59.6258C360.552 70.6116 369.817 79.5098 381.247 79.5098C392.677 79.5098 401.942 70.6116 401.942 59.6258ZM321.381 16.4134H339.022V0.808928H321.381V16.4134ZM322.06 99.2633H338.474V27.634H322.06V99.2633Z" fill="#153D5E"/>
</svg>
