<?xml version="1.0" encoding="utf-8"?>
<!-- Generator: Adobe Illustrator 16.0.0, SVG Export Plug-In . SVG Version: 6.00 Build 0)  -->
<!DOCTYPE svg PUBLIC "-//W3C//DTD SVG 1.1//EN" "http://www.w3.org/Graphics/SVG/1.1/DTD/svg11.dtd">
<svg version="1.1" id="Layer_1" xmlns="http://www.w3.org/2000/svg" xmlns:xlink="http://www.w3.org/1999/xlink" x="0px" y="0px"
	 width="151px" height="34px" viewBox="0 0 151 34" enable-background="new 0 0 151 34" xml:space="preserve">
<polygon fill="#D3232E" points="11.81,1 19.01,0.934 15.92,12.544 18.313,12.544 16.483,20.565 14.02,20.565 11.415,32.664 
	3.817,32.599 "/>
<polygon fill="#D3232E" points="24.224,1 16.202,32.664 23.59,32.664 31.963,1 "/>
<polygon fill="#D3232E" points="33.736,10.498 31.542,17.957 39.844,18.309 29.501,32.664 47.796,32.664 50.61,24.994 
	41.181,24.994 51.947,10.498 "/>
<path fill="#D3232E" d="M69.709,10.498c0,0-6.363,0.422-9.177,5.981c-2.815,5.559-2.885,6.544-5.137,8.797
	c-2.251,2.25-3.096,2.25-3.096,2.25l0.07,5.138c0,0,7.104-0.338,10.171-6.732c2.565-5.343,2.336-5.725,4.102-7.621
	c0.872-0.936,3.067-1.585,3.067-1.585V10.498z"/>
<path fill="#D3232E" d="M85.16,10.433c-5.349-0.008-9.321,3.861-11.47,6.333c-2.69,3.095-5.488,11.399-0.281,14.565
	c7.356,4.474,14.917-4.434,17.24-8.726C92.97,18.314,92.34,10.445,85.16,10.433z M83.471,24.853c-2.744,1.9-5.77-0.421-6.333-2.253
	c-0.563-1.829-0.277-3.676,1.056-4.994c0,0,2.042-2.04,4.715-0.845C85.583,17.957,86.217,22.953,83.471,24.853z"/>
<polygon fill="#D3232E" points="100.78,0.366 92.76,33.085 99.655,33.085 107.957,0.366 "/>
<path fill="#D3232E" d="M116.401,27.11l-2.11,6.825c0,0-8.938-1.76-8.444-9.711c0.491-7.951,5.487-12.454,11.258-13.228
	c5.771-0.775,9.782,1.829,10.134,8.02c0.35,6.193-2.815,14.074-2.815,14.074h-5.912c0,0,2.782-8.78,2.286-12.489
	c-0.42-3.13-4.812-3.876-6.944-1C111.79,22.386,111.818,25.964,116.401,27.11z"/>
<path fill="#D3232E" d="M146.165,8.111l-1.829,7.67c0,0-4.082,1.76-6.192,7.176c-2.11,5.419-1.617,10.134-1.617,10.134h-7.741
	c0,0,0.563-9.921,4.151-16.36C136.526,10.292,141.731,8.111,146.165,8.111z"/>
</svg>
