<?xml version="1.0" encoding="UTF-8"?>
<svg id="Layer_1" data-name="Layer 1" xmlns="http://www.w3.org/2000/svg" width="101.66" height="20.85" xmlns:xlink="http://www.w3.org/1999/xlink" viewBox="0 0 101.66 20.85">
  <defs>
    <style>
      .cls-1 {
        fill: none;
      }

      .cls-1, .cls-2, .cls-3 {
        stroke-width: 0px;
      }

      .cls-4 {
        clip-path: url(#clippath-1);
      }

      .cls-2 {
        fill: #fff;
      }

      .cls-5 {
        clip-path: url(#clippath);
      }

      .cls-3 {
        opacity: 0;
      }
    </style>
    <clipPath id="clippath">
      <rect class="cls-1" y="0" width="101.66" height="20.85"/>
    </clipPath>
    <clipPath id="clippath-1">
      <rect class="cls-1" y="0" width="101.66" height="20.85"/>
    </clipPath>
  </defs>
  <rect class="cls-3" x=".83" y="1.93" width="100" height="17"/>
  <g id="Polaris_Logo_Reversed">
    <g class="cls-5">
      <rect class="cls-2" x="78.37" y="5.32" width="3.08" height="10.22"/>
      <g class="cls-4">
        <path class="cls-2" d="M15.01,5.32H4.88v10.21h3.21v-2.8h6.93c1.96,0,3.55-1.56,3.55-3.49v-.43c0-1.93-1.59-3.49-3.55-3.49M14.18,10.42h-6.1v-2.8h6.1c.77,0,1.4.63,1.4,1.4s-.63,1.4-1.4,1.4"/>
        <path class="cls-2" d="M74.94,12.17c.98-.62,1.63-1.7,1.63-2.94v-.42c0-1.93-1.59-3.49-3.55-3.49h-10.13v10.21h3.21v-2.8h5.56l1.63,2.81h3.61l-1.95-3.36ZM66.09,10.42v-2.8h6.1c.77,0,1.4.63,1.4,1.4s-.63,1.4-1.4,1.4h-6.1Z"/>
        <path class="cls-2" d="M93.64,9.16h-6.83c-.43,0-.77-.34-.77-.77s.34-.77.77-.77h8.86v-2.3h-9.44c-1.73,0-3.14,1.39-3.14,3.13s1.4,3.13,3.14,3.13h6.83c.43,0,.77.35.77.77s-.35.77-.77.77h-9.6v2.41h10.18c1.73,0,3.14-1.39,3.14-3.13s-1.4-3.24-3.14-3.24"/>
        <path class="cls-2" d="M30.99,7.08l-.86,2.44,4.46.65v-1.76c0-1.7-1.38-3.08-3.08-3.08h-3.92l.8,2.71,2.61-.96Z"/>
        <path class="cls-2" d="M30.13,11.35l.86,2.44-2.61-.96-.8,2.71h3.92c1.7,0,3.08-1.38,3.08-3.08v-1.76l-4.46.65Z"/>
        <path class="cls-2" d="M20.05,8.41v1.76l4.46-.65-.86-2.44,2.61.96.8-2.71h-3.92c-1.7,0-3.08,1.38-3.08,3.08"/>
        <path class="cls-2" d="M23.65,13.78l.86-2.44-4.46-.65v1.76c0,1.7,1.38,3.08,3.08,3.08h3.92l-.8-2.71-2.61.96Z"/>
        <path class="cls-2" d="M39.95,13.17c-.3,0-.55-.25-.55-.55v-7.31h-3.08v8.05c0,1.19.97,2.16,2.16,2.16h7.68v-2.35h-6.21Z"/>
        <path class="cls-2" d="M57.76,5.31h-6.59c-1.96,0-3.55,1.56-3.55,3.49v6.73h3.09v-2.81h7.5v2.81h3.09v-6.73c0-1.93-1.59-3.49-3.55-3.49M58.21,10.43h-7.5v-1.7c0-.61.49-1.1,1.09-1.1h5.31c.6,0,1.09.49,1.09,1.1v1.7Z"/>
      </g>
    </g>
  </g>
</svg>